<svg xmlns="http://www.w3.org/2000/svg" height="1200" width="1600" version="1.1" xmlns:xlink="http://www.w3.org/1999/xlink" xmlns:svgjs="http://svgjs.com/svgjs"><rect fill="transparent" width="1600" height="1200"></rect><g><path d="M570.1 672.6V763.5C570.1 776.5 559.6 787 546.6 787H531.3C518.3 787 507.8 797.5 507.8 810.5V846.1C507.8 859.1 518.3 869.6 531.3 869.6H900.7C913.7 869.6 924.2 880.1 924.2 893.1V922.8C924.2 935.8 934.7 946.3 947.7 946.3H966.5C979.5 946.3 990 935.8 990 922.8V857.5C990 844.5 1000.5 834 1013.5 834H1316.5C1329.5 834 1340 823.5 1340 810.5V703.9" stroke="#06b6d4" stroke-width="4" stroke-linecap="round" stroke-linejoin="round" opacity="1" fill="none"></path></g><g><path d="M318.63 289.56L303 265.67 327.27 278.48 335.61 235.55 344.58 281.36 383 262.55 354.99 295.5 389.91 329.65 347.17 314.11 343.91 361.84 328.95 318.53 291.15 340.4 317.58 304.09 279.35 291.91 318.63 289.56Z" fill="#06b6d4" opacity="1" stroke-width="4" stroke="none"></path></g><g><path d="M707.21 418.08L645.1 398.65V367.99H624.06L515.35 464.97 624.06 574.38H645.1V543.72L707.21 524.29V418.08Z" fill="#06b6d4" opacity="1" stroke-width="4" stroke="none"></path><path d="M652.21 400.85L645.1 398.65V543.72L669.44 536.11 652.21 400.85Z" fill="#000000" opacity="0.3" stroke-width="4" stroke="none"></path><path d="M581.98 553.34H474.77V626.48H581.98V553.34Z" fill="#ffffff" opacity="1" stroke-width="4" stroke="none"></path><path d="M552.92 553.34H445.72V626.48H552.92V553.34Z" fill="#06b6d4" opacity="1" stroke-width="4" stroke="none"></path><path d="M604.02 612.45H709.22V681.58H604.02L538.69 650.52 604.02 612.45Z" fill="#06b6d4" opacity="1" stroke-width="4" stroke="none"></path><path d="M604.02 612.45H354.55V681.58H604.02V612.45Z" fill="#000000" opacity="1" stroke-width="4" stroke="none"></path><path d="M624.06 367.99H374.58V574.38H624.06V367.99Z" fill="#000000" opacity="1" stroke-width="4" stroke="none"></path><path d="M594 398.05H404.64V544.32H594V398.05Z" fill="#ffffff" opacity="1" stroke-width="4" stroke="none"></path><path d="M588.99 627.48H502.83V645.51H588.99V627.48Z" fill="#000000" opacity="1" stroke-width="4" stroke="none"></path><path d="M645.1 398.65V543.72" stroke="#000000" stroke-width="4" stroke-linecap="round" stroke-linejoin="round" opacity="1" fill="none"></path><path d="M431.69 427.1H499.82" stroke="#000000" stroke-width="4" stroke-linecap="round" stroke-linejoin="round" opacity="1" fill="none"></path><path d="M431.69 447.14H463.75" stroke="#000000" stroke-width="4" stroke-linecap="round" stroke-linejoin="round" opacity="1" fill="none"></path><path d="M431.69 477.2H481.79" stroke="#000000" stroke-width="4" stroke-linecap="round" stroke-linejoin="round" opacity="1" fill="none"></path></g><g><path d="M1415.57 248.64L1457.78 670.72C1461.03 703.28 1431.09 729.73 1390.7 729.84L781.22 731.43C740.98 731.53 705.76 705.25 702.51 672.69L660.3 250.61C657.04 218.05 686.99 191.6 727.23 191.5L1336.7 189.91C1376.94 189.8 1412.31 216.08 1415.57 248.64Z" fill="#ffffff" opacity="1" stroke-width="4" stroke="none"></path></g><g><path d="M1217.59 380.54L1160.22 408.35" stroke="#000000" stroke-width="4" stroke-linecap="round" stroke-linejoin="round" opacity="1" fill="none"></path><path d="M1177.14 561.58L1240.66 589.38" stroke="#000000" stroke-width="4" stroke-linecap="round" stroke-linejoin="round" opacity="1" fill="none"></path><path d="M1168.66 484.81H1229.11" stroke="#000000" stroke-width="4" stroke-linecap="round" stroke-linejoin="round" opacity="1" fill="none"></path><path d="M969.17 273.86L1003.65 334.3" stroke="#000000" stroke-width="4" stroke-linecap="round" stroke-linejoin="round" opacity="1" fill="none"></path><path d="M1082.53 334.3L1103.66 273.86" stroke="#000000" stroke-width="4" stroke-linecap="round" stroke-linejoin="round" opacity="1" fill="none"></path><path d="M906.7 589.38L964.07 561.58" stroke="#000000" stroke-width="4" stroke-linecap="round" stroke-linejoin="round" opacity="1" fill="none"></path><path d="M947.15 408.35L883.63 380.54" stroke="#000000" stroke-width="4" stroke-linecap="round" stroke-linejoin="round" opacity="1" fill="none"></path><path d="M955.59 484.81H895.15" stroke="#000000" stroke-width="4" stroke-linecap="round" stroke-linejoin="round" opacity="1" fill="none"></path><path d="M1043.14 322.52C1106.61 322.52 1163.66 373.9 1170.67 437.36L1181.19 532.56C1188.2 596.03 1142.49 647.41 1079.03 647.41 1015.56 647.41 958.51 596.03 951.5 532.56L940.98 437.36C933.97 373.9 979.68 322.52 1043.14 322.52Z" fill="#06b6d4" opacity="1" stroke-width="4" stroke="none"></path><path d="M942.15 447.94H1171.54" stroke="#000000" stroke-width="4" stroke-linecap="round" stroke-linejoin="round" opacity="1" fill="none"></path><path d="M1079.03 647.41L1057 447.94" stroke="#000000" stroke-width="4" stroke-linecap="round" stroke-linejoin="round" opacity="1" fill="none"></path><path d="M1003.83 409.86C1009.66 409.86 1013.88 405.11 1013.24 399.28 1012.6 393.45 1007.33 388.7 1001.49 388.7 995.66 388.7 991.44 393.45 992.08 399.28 992.73 405.11 998 409.86 1003.83 409.86Z" fill="#000000" opacity="1" stroke-width="4" stroke="none"></path><path d="M1103.87 409.86C1109.7 409.86 1113.92 405.11 1113.28 399.28 1112.63 393.45 1107.36 388.7 1101.53 388.7 1095.7 388.7 1091.48 393.45 1092.12 399.28 1092.77 405.11 1098.03 409.86 1103.87 409.86Z" fill="#000000" opacity="1" stroke-width="4" stroke="none"></path></g><g><path d="M1047.47 478.89L1047.91 472.79C1028.64 452.89 1015.55 440.87 1009 436.98 989.82 425.57 964.08 417.08 953.82 417.08 950.82 417.08 949.14 417.79 948.96 419.29 948.17 425.57 968.77 435.21 971.78 436.53 965.76 439.72 967.18 447.15 967.44 448.21 960.81 454.13 964.52 460.06 965.14 460.94 964.35 461.82 959.31 468.1 966.2 475 970.45 479.25 974.52 480.13 977.08 480.13 978.67 480.13 979.73 479.78 980.09 479.69 986.81 491.01 999.37 494.54 1000.51 494.81 1000.78 495.43 1002.64 499.67 1005.64 505.77L1011.75 507.19 1047.47 478.89Z" fill="#e59763" opacity="1" stroke-width="4" stroke="none"></path><path d="M1220.17 442.46V442.28C1222.83 430.7 1226.8 412.57 1230.7 392.23 1233.97 374.81 1231.76 360.49 1224.15 350.76 1217.34 342 1206.55 337.14 1192.14 336.17 1190.73 336.08 1189.4 336.08 1188.07 336.08 1160.04 336.08 1149.96 355.09 1144.21 371.72 1143.33 374.37 1142.36 377.02 1141.56 379.67 1140.5 379.76 1133.6 380.47 1132.72 383.92 1131.83 387.28 1136.43 392.14 1137.14 392.85 1133.87 403.73 1132.89 410.09 1132.63 413.63 1132.45 416.28 1132.54 422.92 1137.4 428.22 1141.74 432.91 1148.63 435.21 1157.92 435.21 1160.48 435.21 1163.22 435.03 1166.05 434.68L1164.64 442.9 1220.17 442.46Z" fill="#e59763" opacity="1" stroke-width="4" stroke="none"></path><path d="M1177.37 431.85C1177.37 431.85 1171.36 433.79 1167.47 434.41L1166.05 434.68 1164.73 442.55 1169.06 447.85 1177.37 431.85Z" fill="#030202" opacity="0.2" stroke-width="4" stroke="none"></path><path d="M1254.84 618.43C1274.73 616.31 1288.62 603.49 1291.89 583.95 1294.89 566.17 1284.2 516.3 1263.77 486.32 1244.23 457.67 1220.26 452.27 1217.87 451.83 1218.05 451.04 1218.93 447.59 1220.17 442.28L1220.26 442.1 1164.82 441.93 1163.49 449.27C1151.37 449.89 1139.61 452.45 1128.29 456.87 1110.87 463.77 1080.37 501.97 1078.07 504.8 1076.56 503.12 1062.95 488.18 1047.91 472.7L1047.82 472.61 1005.56 505.6 1005.64 505.77C1016.17 527.09 1043.58 576.61 1070.2 577.58 1070.82 577.58 1071.52 577.58 1072.14 577.58 1089.47 577.58 1105.21 568.91 1115.38 561.66 1125.29 554.59 1131.92 547.42 1133.25 546.01L1150.31 617.37 1254.84 618.43Z" fill="#ffffff" opacity="1" stroke-width="4" stroke="none"></path><path d="M1254.84 618.43C1261.29 617.81 1267.57 615.87 1273.14 612.6L1273.41 612.42 1273.14 612.24C1258.37 601.72 1255.54 586.95 1253.24 575.01 1251.65 566.61 1250.33 559.45 1245.11 556.09L1244.93 555.91 1235.29 601.1 1254.84 618.43Z" fill="#b7b7b7" opacity="0.2" stroke-width="4" stroke="none"></path><path d="M1143.5 534.78L1133.25 546.01 1150.31 617.55 1177.28 618.43 1143.5 534.78Z" fill="#b7b7b7" opacity="0.2" stroke-width="4" stroke="none"></path><path d="M1299.23 477.65C1301.7 444.4 1284.02 432.38 1266.95 420.62 1253.78 411.6 1241.31 403.11 1238.21 385.6 1231.85 350.05 1221.06 338.29 1192.05 335.02 1190.11 334.84 1188.16 334.66 1186.22 334.66 1163.93 334.66 1153.67 349.52 1149.61 358.54 1149.61 358.54 1151.2 369.15 1166.94 369.15 1168.09 369.15 1169.33 369.06 1169.18 369.21 1168.09 376.76 1169.66 384.94 1174.19 391.88L1174.24 391.97 1174.46 391.89C1174.45 391.88 1183.83 388.43 1192.23 388.43 1199.21 388.43 1203.55 390.73 1205.14 395.33 1209.74 409.03 1188.6 423.27 1188.43 423.45H1188.34V423.53C1188.25 423.8 1181.35 453.07 1191.88 477.56L1191.96 477.65H1299.23V477.65Z" fill="#010005" opacity="1" stroke-width="4" stroke="none"></path><path d="M1247.32 357.57C1226.95 357.57 1210.45 341.06 1210.45 320.69 1210.45 300.33 1226.95 283.82 1247.32 283.82 1267.69 283.82 1284.2 300.33 1284.2 320.69 1284.2 341.06 1267.69 357.57 1247.32 357.57Z" fill="#010005" opacity="1" stroke-width="4" stroke="none"></path><path d="M1190.28 432.73C1184.82 432.73 1180.38 428.3 1180.38 422.83 1180.38 417.35 1184.82 412.92 1190.28 412.92 1195.76 412.92 1200.19 417.35 1200.19 422.83 1200.19 428.3 1195.76 432.73 1190.28 432.73Z" fill="#ffffff" opacity="1" stroke-width="4" stroke="none"></path><path d="M1146.25 600.57V600.39H1165.26L1235.38 600.39H1235.47C1281.45 636.12 1291.27 668.84 1301.7 703.5 1307.63 723.22 1313.73 743.56 1326.64 765.84 1333.1 777.07 1340.26 785.39 1348.57 795.11 1362.28 811.12 1379.34 831.1 1403.57 874.61 1404.19 875.76 1404.81 876.91 1405.43 878.06L1405.25 887.61 1335.93 918.65 1328.23 914.93C1319.21 900.79 1307.28 885.93 1295.69 871.52 1288.44 862.5 1280.92 853.12 1274.11 843.93L1273.76 843.4C1258.99 823.41 1246.26 806.17 1230.16 772.65 1229.81 777.34 1229.55 782.2 1229.46 787.15 1229.02 811.65 1231.93 825.62 1235.56 843.4 1239.18 861.26 1243.78 883.45 1246.26 924.22V924.93L1239.98 934.3 1170.65 933.33 1163.67 925.19C1161.19 904.85 1157.03 881.86 1152.97 859.58 1150.31 844.63 1147.75 830.4 1145.89 818.19 1138.2 766.46 1130.77 717.65 1146.25 600.57Z" fill="#06b6d4" opacity="1" stroke-width="4" stroke="none"></path><path d="M1255.1 817.22C1255.01 817.04 1250.59 799.09 1249.71 766.82 1249.44 757.27 1249.44 748.69 1249.44 741.17 1249.44 715.79 1251.48 702.79 1241.93 693.95L1229.9 772.21C1242.46 797.94 1249.44 808.47 1249.44 808.47L1255.1 817.22Z" fill="#000000" opacity="0.2" stroke-width="4" stroke="none"></path><path d="M1242.55 683.96C1241.04 711.81 1232.2 739.85 1230.16 772.65" stroke="#000000" stroke-width="4" stroke-linecap="round" stroke-linejoin="round" opacity="1" fill="none"></path><path d="M1240.86 1019.63L1243.43 1015.3C1245.82 993.55 1248.29 960.21 1246.26 925.1V924.93H1163.58L1163.67 925.55C1167.03 953.22 1166.41 969.94 1161.81 977.37 1154.03 989.83 1145.45 996.91 1137.93 1003.1 1132.89 1007.17 1128.56 1010.7 1125.29 1015.21L1125.91 1020.96 1240.86 1019.63Z" fill="#ffffff" opacity="1" stroke-width="4" stroke="none"></path><path d="M1240.86 1034.84V1034.67C1240.86 1034.58 1242.1 1027.24 1243.43 1015.3V1015.12H1125.29L1125.2 1015.21C1121.22 1020.61 1119.36 1026.8 1119.36 1034.67V1034.84H1240.86V1034.84Z" fill="#808080" opacity="1" stroke-width="4" stroke="none"></path><path d="M1434.79 968.43L1436.12 962.33C1431.08 940.67 1421.7 908.39 1405.43 878.06L1405.34 877.88 1328.06 914.76 1328.14 914.93C1340.97 935.1 1346.01 950.93 1343.97 964.81 1341.94 978.87 1337.43 988.68 1333.45 997.35 1330.62 1003.45 1328.41 1008.93 1327.35 1014.51L1331.95 1018.22 1434.79 968.43Z" fill="#ffffff" opacity="1" stroke-width="4" stroke="none"></path><path d="M1440.27 982.49C1440.27 982.32 1439.03 974.54 1436.2 962.42L1436.12 962.24 1327.35 1014.42C1326.11 1021.14 1327.17 1027.68 1330.71 1034.84L1330.8 1035.02 1440.27 982.49Z" fill="#808080" opacity="1" stroke-width="4" stroke="none"></path><path d="M1142.36 402.58C1143.77 403.55 1148.19 403.73 1150.93 400.63" stroke="#030202" stroke-width="4" stroke-linecap="round" stroke-linejoin="round" opacity="1" fill="none"></path><path d="M1150.93 388.25C1152.44 388.25 1153.59 387.01 1153.59 385.6 1153.59 384.18 1152.35 382.95 1150.93 382.95 1149.43 382.95 1148.28 384.18 1148.28 385.6 1148.28 387.01 1149.52 388.25 1150.93 388.25Z" fill="#171314" opacity="1" stroke-width="4" stroke="none"></path><path d="M1165.61 434.85C1171.54 434.06 1176.22 432.73 1176.22 432.73" stroke="#030202" stroke-width="4" stroke-linecap="round" stroke-linejoin="round" opacity="1" fill="none"></path><path d="M1179.67 408.68L1187.63 405.14" stroke="#030202" stroke-width="4" stroke-linecap="round" stroke-linejoin="round" opacity="1" fill="none"></path><path d="M1247.32 547.51L1235.38 600.57 1146.51 600.57" stroke="#b7b7b7" stroke-width="4" stroke-linecap="round" stroke-linejoin="round" opacity="1" fill="none"></path><path d="M1254.84 578.46L1241.4 574.04" stroke="#b7b7b7" stroke-width="4" stroke-linecap="round" stroke-linejoin="round" opacity="1" fill="none"></path><path d="M1133.34 545.83C1139.88 539.55 1146.07 532.48 1146.07 532.48" stroke="#b7b7b7" stroke-width="4" stroke-linecap="round" stroke-linejoin="round" opacity="1" fill="none"></path><path d="M1078.07 505.15V520.54" stroke="#b7b7b7" stroke-width="4" stroke-linecap="round" stroke-linejoin="round" opacity="1" fill="none"></path><path d="M1047.82 472.88L1005.91 505.69" stroke="#b7b7b7" stroke-width="4" stroke-linecap="round" stroke-linejoin="round" opacity="1" fill="none"></path><path d="M1165.5 965.52L1182.32 967.55" stroke="#808080" stroke-width="4" stroke-linecap="round" stroke-linejoin="round" opacity="1" fill="none"></path><path d="M1161.91 977.93L1174.9 987.18" stroke="#808080" stroke-width="4" stroke-linecap="round" stroke-linejoin="round" opacity="1" fill="none"></path><path d="M1341.92 942.05L1360.07 937.48" stroke="#808080" stroke-width="4" stroke-linecap="round" stroke-linejoin="round" opacity="1" fill="none"></path><path d="M1345.35 959.67L1363.6 957.82" stroke="#808080" stroke-width="4" stroke-linecap="round" stroke-linejoin="round" opacity="1" fill="none"></path><path d="M1246.08 925.1H1163.84" stroke="#808080" stroke-width="4" stroke-linecap="round" stroke-linejoin="round" opacity="1" fill="none"></path><path d="M1328.41 914.85L1405.25 878.15" stroke="#808080" stroke-width="4" stroke-linecap="round" stroke-linejoin="round" opacity="1" fill="none"></path><path d="M972.31 436.53C977.88 436.27 983.36 436.98 988.67 438.74" stroke="#030202" stroke-width="4" stroke-linecap="round" stroke-linejoin="round" opacity="1" fill="none"></path><path d="M967.71 448.21C974.52 446.7 984.24 450.24 984.24 450.24" stroke="#030202" stroke-width="4" stroke-linecap="round" stroke-linejoin="round" opacity="1" fill="none"></path><path d="M965.41 460.94C972.75 459.97 980.71 462.62 980.71 462.62" stroke="#030202" stroke-width="4" stroke-linecap="round" stroke-linejoin="round" opacity="1" fill="none"></path></g><g><path d="M744.06 1010.86L695.06 1032.21H642.77L672.61 769.97C673.25 764.32 678.36 760.21 684.11 760.85 686.3 761.12 688.4 762.03 689.95 763.49L719.51 790.78C723.8 794.7 726.44 799.99 726.99 805.74L744.06 1010.86Z" fill="#000000" opacity="1" stroke-width="4" stroke="none"></path><path d="M765.32 784.03H708.47C701.08 784.03 695.06 790.05 695.06 797.44V1032.21H718.51L745.42 1005.48 751.9 992.34 765.32 784.03Z" fill="#ffffff" opacity="1" stroke-width="4" stroke="none"></path><path d="M824.63 1032.21H718.51L748.34 769.97C748.98 764.32 754.09 760.21 759.84 760.85 762.03 761.12 764.13 762.03 765.68 763.49L795.24 790.78C799.53 794.7 802.18 799.99 802.73 805.74L824.63 1032.21Z" fill="#000000" opacity="1" stroke-width="4" stroke="none"></path><path d="M675.89 921.81L672.24 999.37" stroke="#000000" stroke-width="4" stroke-linecap="round" stroke-linejoin="round" opacity="1" fill="none"></path><path d="M770.06 767.51L765.32 1032.21" stroke="#000000" stroke-width="4" stroke-linecap="round" stroke-linejoin="round" opacity="1" fill="none"></path><path d="M695.06 1032.21H765.32L769.24 813.77C769.24 813.77 746.06 945.8 695.06 982.85V1032.21Z" fill="#000000" opacity="0.3" stroke-width="4" stroke="none"></path></g><g><path d="M1399.07 775.48L1411.81 788.22C1416.42 792.91 1424.05 792.91 1428.74 788.3 1433.18 783.69 1433.1 776.4 1428.57 771.88L1415.67 758.98C1414.58 757.89 1414.58 756.21 1415.67 755.12 1416 754.79 1416.42 754.53 1416.84 754.45 1434.52 749.17 1453.12 759.23 1458.4 776.91 1460.66 784.62 1460.16 792.83 1456.89 800.12L1502.64 845.95C1507.34 850.56 1507.34 858.19 1502.73 862.88 1498.12 867.32 1490.83 867.24 1486.3 862.71L1440.3 816.71C1423.54 824.42 1403.77 817.05 1396.06 800.29 1392.62 792.83 1392.04 784.37 1394.47 776.49 1394.88 775.06 1396.48 774.23 1397.9 774.65 1398.32 774.9 1398.74 775.15 1399.07 775.48Z" fill="#000000" opacity="1" stroke-width="4" stroke="none"></path></g><g><path d="M497.17 1005.86C497.17 1005.86 485.67 991.33 476.5 977.65 470.13 968.17 464.76 956.13 463.83 941.98 463.36 935.61 463.13 928.15 462.98 921.54 462.98 921.15 455.28 917.89 455.28 917.5L377.18 921.46C380.13 961.41 389.77 993.97 396.45 1012.47L504.55 1019.15C502.61 1015.89 497.17 1005.86 497.17 1005.86Z" fill="#db9889" opacity="1" stroke-width="4" stroke="none"></path><path d="M450.07 1012.47L509.76 1012.78C509.84 1012.78 509.92 1012.55 509.84 1012.47 507.89 1009.28 505.02 1005.86 501.06 1002.91 497.01 999.88 485.59 991.25 476.5 977.73 476.5 977.73 476.42 977.65 476.42 977.73 462.28 983.64 451.94 996.69 450.07 1012.47 450.07 1012.47 450 1012.39 450.07 1012.47Z" fill="#06b6d4" opacity="1" stroke-width="4" stroke="none"></path><path d="M431.58 760.67C403.13 742.02 291.92 717.31 291.92 717.31H205.58L198.59 760.13C192.37 798.36 221.98 832.95 260.84 832.95L368.4 833.02C361.56 864.5 375.31 894.73 377.26 921.46L462.98 921.54C461.58 857.12 470.59 786.24 431.58 760.67Z" fill="#ffffff" opacity="1" stroke-width="4" stroke="none"></path><path d="M434.22 956.9C434.22 913.38 454.82 861.93 450 828.21L415.34 849.19C392.72 900.09 409.9 982.32 417.36 1012.47H458.7C449.38 1003.14 434.22 975.94 434.22 956.9Z" fill="#dddddd" opacity="0.2" stroke-width="4" stroke="none"></path><path d="M509.84 1012.47H480.93 417.36 396.53C396.45 1012.47 396.45 1012.55 396.45 1012.55 400.03 1022.65 402.82 1028.48 403.06 1029.02 403.06 1029.02 403.06 1029.1 403.13 1029.1H513.88C513.96 1029.1 513.96 1029.1 513.96 1029.02 514.11 1028.25 514.81 1020.71 509.84 1012.47Z" fill="#000000" opacity="1" stroke-width="4" stroke="none"></path><path d="M444.48 1000.58C436.47 994.52 432.82 987.52 428.7 982.08 421.32 972.29 419.61 962.89 421.16 952.63 421.79 948.66 423.88 941.13 426.68 931.88 427.69 928.61 428.86 925.04 429.95 921.39L388.45 918.59 349.12 921.31C348.73 925.51 348.35 929.78 348.03 933.98 348.03 933.98 347.26 962.96 348.73 978.27 349.82 989.47 354.25 997.86 356.97 1009.44L386.74 1012.47 409.51 1021.25 453.11 1020.78C452.72 1014.65 454.27 1009.98 444.48 1000.58Z" fill="#db9889" opacity="1" stroke-width="4" stroke="none"></path><path d="M447.59 867.76C451.01 856.65 455.59 840.17 457.22 833.72 463.13 809.32 473.86 764.17 418.68 742.95 364.82 723.37 300.71 717.07 300.71 717.07L247.7 713.42 198.67 717.07C186.77 752.67 163.3 832.95 239.39 832.95 246.77 832.95 253.92 832.95 260.84 832.95 325.19 832.95 368.4 833.02 368.4 833.02 368.4 833.02 365.75 839.94 362.41 851.91 361.09 856.49 359.69 861.78 358.21 867.76 353.86 885.4 350.83 903.28 349.12 921.31L429.95 921.39C435.39 904.76 442.23 884.63 447.59 867.76Z" fill="#ffffff" opacity="1" stroke-width="4" stroke="none"></path><path d="M458.7 1012.55C458.78 1012.55 458.86 1012.47 458.78 1012.39 455.59 1007.26 451.32 1002.6 446.5 999.02 438.57 993.04 432.82 987.44 428.78 982.16H428.7C418.44 988.77 411.37 1000.11 409.58 1012.78 409.58 1012.94 409.66 1013.09 409.82 1013.09L435.7 1016.2 458.7 1012.55Z" fill="#06b6d4" opacity="1" stroke-width="4" stroke="none"></path><path d="M354.41 1012.47H386.66C386.74 1012.47 386.74 1012.39 386.74 1012.39 383.16 994.13 367.7 980.06 348.81 978.27 348.73 978.27 348.73 978.27 348.73 978.35 349.82 989.54 351.61 1000.89 354.41 1012.47 354.33 1012.47 354.33 1012.47 354.41 1012.47Z" fill="#06b6d4" opacity="1" stroke-width="4" stroke="none"></path><path d="M362.57 851.83L394.74 833.18C394.82 833.1 394.82 833.02 394.66 833.02H368.4C368.4 833.02 368.32 833.02 368.32 833.1 368.01 833.88 365.75 840.1 362.33 851.75 362.41 851.75 362.49 851.83 362.57 851.83Z" fill="#dddddd" opacity="0.2" stroke-width="4" stroke="none"></path><path d="M463.99 1027.55C463.83 1025.29 463.13 1019.7 458.86 1012.39 455.67 1007.18 451.4 1002.6 446.5 998.95 423.96 981.93 418.76 968.48 421.16 952.55 421.79 948.59 423.88 941.05 426.68 931.8 427.69 928.54 428.86 924.96 429.95 921.31 435.31 904.6 442.07 884.55 447.43 867.76 450.85 856.65 455.44 840.17 457.07 833.72 458.16 829.45 459.32 824.48 460.18 819.19" stroke="#dddddd" stroke-width="4" stroke-linecap="round" stroke-linejoin="round" opacity="1" fill="none"></path><path d="M394.74 833.18L368.4 833.02" stroke="#dddddd" stroke-width="4" stroke-linecap="round" stroke-linejoin="round" opacity="1" fill="none"></path><path d="M219.8 485.64C217.94 498.77 216.15 561.25 216.15 561.25L267.83 560.01 270.94 552.32V548.04C276.92 550.92 292.86 553.09 300.08 545.24 307.23 537.55 306.61 528.77 305.29 520.14 305.21 519.83 305.37 519.44 305.68 519.29 307.31 518.28 312.52 514.78 312.44 511.67 312.36 508.87 306.85 506.54 305.45 506 305.29 505.92 305.14 505.76 305.14 505.53 305.21 498.46 305.14 491.23 304.44 485.01 303.97 480.51 303.11 476.54 301.72 473.43 295.5 460.22 282.91 454.39 261.85 452.22 237.68 449.58 221.12 474.13 219.8 485.64Z" fill="#db9889" opacity="1" stroke-width="4" stroke="none"></path><path d="M478.52 604.31C482.72 599.33 477.59 596.46 477.12 596.15V596.07C480.54 587.6 471.83 587.91 471.14 587.99 471.14 587.99 471.06 587.99 471.06 587.91 469.58 580.14 444.17 589.46 442.3 590.16 442.23 590.16 442.23 590.16 442.23 590.09 442.38 589.08 443.39 582.08 439.97 582.08 436.24 582.08 426.68 588.76 411.84 601.35 405.08 607.18 381.06 629.64 380.21 630.42 380.21 630.42 380.21 630.42 380.21 630.5L380.29 635.08 413.7 664.61 417.36 665C417.36 665 417.43 665 417.43 664.93L421.86 655.21C422.02 654.9 422.25 654.75 422.56 654.67 440.28 651.87 445.18 634.93 456.84 630.65 468.73 626.22 478.36 622.57 478.36 618.06 478.36 614.41 464.61 615.89 459.32 616.59 459.01 616.66 458.86 616.2 459.17 616.04 463.52 614.02 475.02 608.43 478.52 604.31Z" fill="#db9889" opacity="1" stroke-width="4" stroke="none"></path><path d="M249.02 509.18L254.23 512.99" stroke="#905d51" stroke-width="4" stroke-linecap="round" stroke-linejoin="round" opacity="1" fill="none"></path><path d="M287.57 518.59C288.58 520.53 290.6 521.7 292.78 521.54" stroke="#905d51" stroke-width="4" stroke-linecap="round" stroke-linejoin="round" opacity="1" fill="none"></path><path d="M270.94 548.04C268.07 546.25 265.03 544.31 262.47 542.52" stroke="#905d51" stroke-width="4" stroke-linecap="round" stroke-linejoin="round" opacity="1" fill="none"></path><path d="M270.94 560.01V548.04C268.69 547.03 265.89 544.86 262.47 542.52 262.16 542.29 261.77 542.68 261.93 542.99L270.94 560.01Z" fill="#905d51" opacity="0.25" stroke-width="4" stroke="none"></path><path d="M434.45 593.58L442.15 590.24" stroke="#905d51" stroke-width="4" stroke-linecap="round" stroke-linejoin="round" opacity="1" fill="none"></path><path d="M471.06 587.99C454.74 592.42 443.31 596.54 443.31 596.54" stroke="#905d51" stroke-width="4" stroke-linecap="round" stroke-linejoin="round" opacity="1" fill="none"></path><path d="M477.04 596.15C464.45 599.1 449.92 604.62 449.92 604.62" stroke="#905d51" stroke-width="4" stroke-linecap="round" stroke-linejoin="round" opacity="1" fill="none"></path><path d="M291.38 505.22C292.66 505.22 293.71 504.18 293.71 502.89 293.71 501.61 292.66 500.56 291.38 500.56 290.09 500.56 289.05 501.61 289.05 502.89 289.05 504.18 290.09 505.22 291.38 505.22Z" fill="#0b0c0c" opacity="1" stroke-width="4" stroke="none"></path><path d="M355.57 653.89C354.41 651.33 331.71 598.79 318.97 582 304.51 563.04 274.2 562.03 271.25 561.95 271.1 561.95 271.02 561.88 271.02 561.72V552.32H215.61L216 565.29C216 565.29 179.62 586.59 188.17 644.1 196.1 697.72 198.74 717.07 198.74 717.07H300.78L303.74 689.02C303.74 688.94 303.89 688.94 303.89 689.02 305.6 692.59 325.34 732.46 356.66 730.67 379.74 729.27 393.34 707.67 405.31 686.61L386.04 660.19 362.8 647.13C358.6 650.94 356.04 653.42 355.57 653.89Z" fill="#06b6d4" opacity="1" stroke-width="4" stroke="none"></path><path d="M300.71 717.07L303.66 688.71 283.3 650.55C283.06 650.08 282.36 650.24 282.36 650.78L280.34 717.15 300.71 717.07Z" fill="#000000" opacity="0.25" stroke-width="4" stroke="none"></path><path d="M380.21 630.5C376.4 633.99 372.83 637.49 369.64 640.6 367 643.09 364.9 645.19 362.8 647.13L405.31 686.61C410.52 678.45 414.4 670.99 417.36 665.16V665.08L380.21 630.5Z" fill="#ffffff" opacity="1" stroke-width="4" stroke="none"></path><path d="M355.57 653.89L359.38 662.67" stroke="#000000" stroke-width="4" stroke-linecap="round" stroke-linejoin="round" opacity="1" fill="none"></path><path d="M303.66 688.71C294.02 671.61 283.3 650.55 283.3 650.55" stroke="#000000" stroke-width="4" stroke-linecap="round" stroke-linejoin="round" opacity="1" fill="none"></path><path d="M278.48 562.57C276.77 562.19 271.17 561.95 271.17 561.95" stroke="#000000" stroke-width="4" stroke-linecap="round" stroke-linejoin="round" opacity="1" fill="none"></path><path d="M369.25 640.83C364.9 644.95 356.12 653.35 355.49 653.97V654.05L359.38 662.67C359.38 662.75 359.46 662.75 359.54 662.67L369.41 640.91C369.41 640.83 369.33 640.76 369.25 640.83Z" fill="#000000" opacity="0.25" stroke-width="4" stroke="none"></path><path d="M301.72 472.97C295.5 459.76 282.83 451.67 261.77 449.42 237.6 446.86 218.33 462.01 215.45 485.64 214.67 490.92 214.52 504.05 214.67 517.89 214.67 518.28 214.36 518.67 213.9 518.59 207.37 518.12 161.36 516.64 160.12 564.28 160.12 564.67 159.81 565.06 159.42 565.14 154.76 565.84 128.57 570.97 118.77 599.64 117.53 603.38 116.6 607.03 116.05 610.52 113.88 623.74 116.21 635.7 121.26 645.42 129.03 660.42 143.25 670.21 157.24 671.53 157.32 671.53 157.32 671.53 157.4 671.53 208.92 676.19 212.19 621.87 212.27 620.01 212.27 620.01 212.27 619.93 212.34 619.93 236.9 613.48 248.33 599.96 252.91 585.35 259.59 563.97 251.74 540.35 248.87 532.81 248.33 531.33 247.47 530.01 246.38 528.92 242.11 524.42 230.37 510.58 238.3 499.16 248.09 485.17 266.59 502.19 267.29 502.89 267.29 502.89 267.29 502.89 267.37 502.89 267.75 502.73 271.17 501.33 272.42 490.53 272.42 490.45 272.49 490.45 272.57 490.45 285.55 496.9 285.4 484.7 285.4 483.38 285.4 483.3 285.47 483.3 285.47 483.3 295.5 489.52 303.89 485.25 304.44 484.94 304.44 484.94 304.44 484.94 304.44 484.86 304.2 480.35 303.19 476.08 301.72 472.97Z" fill="#7e1b30" opacity="1" stroke-width="4" stroke="none"></path><path d="M197.27 599.64C196.18 601.28 166.88 647.21 124.06 617.91 121.26 615.89 118.39 613.4 116.13 610.6 116.05 610.52 115.98 610.6 115.98 610.6 113.88 623.81 116.13 635.63 121.26 645.34 129.11 660.26 143.41 670.13 157.4 671.45 177.53 673.32 190.27 666.17 198.35 656.61 211.02 641.69 212.27 621.02 212.27 619.93 212.27 619.93 212.27 619.85 212.34 619.85 236.51 613.48 248.09 600.34 252.76 585.58 252.76 585.5 252.68 585.42 252.6 585.5 241.49 598.17 224.31 606.56 197.27 599.64Z" fill="#0d0d0d" opacity="0.25" stroke-width="4" stroke="none"></path><path d="M214.6 508.25V518.12" stroke="#0d0d0d" stroke-width="4" stroke-linecap="round" stroke-linejoin="round" opacity="1" fill="none"></path><path d="M224.39 615.73C219.26 617.83 215.84 618.92 212.27 620.01" stroke="#000000" stroke-width="4" stroke-linecap="round" stroke-linejoin="round" opacity="1" fill="none"></path><path d="M222.06 750.96H261.07C261.77 750.96 262.39 751.58 262.24 752.36 261.15 758.73 255.55 785.23 235.66 785.23 215.3 785.23 219.8 757.41 220.89 751.89 221.05 751.35 221.51 750.96 222.06 750.96Z" fill="#d6d6d6" opacity="1" stroke-width="4" stroke="none"></path><path d="M198.59 717.23H300.63" stroke="#000000" stroke-width="4" stroke-linecap="round" stroke-linejoin="round" opacity="1" fill="none"></path><path d="M214.99 465.66C232.75 465.66 247.16 451.25 247.16 433.49 247.16 415.72 232.75 401.32 214.99 401.32 197.21 401.32 182.81 415.72 182.81 433.49 182.81 451.25 197.21 465.66 214.99 465.66Z" fill="#7e1b30" opacity="1" stroke-width="4" stroke="none"></path><path d="M354.33 1012.55C355.65 1017.99 357.13 1023.58 358.76 1029.02L358.84 1029.1H463.83C463.91 1029.1 463.91 1029.1 463.91 1029.02 463.91 1028.25 463.83 1021.1 458.78 1012.47L458.7 1012.39H354.41C354.41 1012.47 354.33 1012.55 354.33 1012.55Z" fill="#000000" opacity="1" stroke-width="4" stroke="none"></path><path d="M241.18 452.14C237.13 457.81 231.31 462.09 224.54 464.19" stroke="#0d0d0d" stroke-width="4" stroke-linecap="round" stroke-linejoin="round" opacity="1" fill="none"></path></g><g><path d="M251.61 856.91L249.76 1000.34" stroke="#000000" stroke-width="4" stroke-linecap="round" stroke-linejoin="round" opacity="1" fill="none"></path><path d="M249.76 1000.34L285.94 1028.62" stroke="#000000" stroke-width="4" stroke-linecap="round" stroke-linejoin="round" opacity="1" fill="none"></path><path d="M249.76 1000.34L213.98 1028.62" stroke="#000000" stroke-width="4" stroke-linecap="round" stroke-linejoin="round" opacity="1" fill="none"></path><path d="M166.68 833.51H338.3C344.73 833.51 350 838.77 350 845.21 350 851.64 344.73 856.91 338.3 856.91H166.68C160.25 856.91 154.98 851.64 154.98 845.21 154.98 838.77 160.25 833.51 166.68 833.51Z" fill="#000000" opacity="1" stroke-width="4" stroke="none"></path></g></svg>