 
<svg version="1.0" xmlns="http://www.w3.org/2000/svg"
 width="72.000000pt" height="64.000000pt" viewBox="0 0 72.000000 64.000000"
 preserveAspectRatio="xMidYMid meet"> 
<g transform="translate(0.000000,64.000000) scale(0.100000,-0.100000)"
fill="#06b6d4" stroke="none">
<path d="M267 600 c-35 -28 -90 -114 -117 -185 -30 -79 -33 -203 -6 -255 47
-89 118 -134 216 -134 98 0 169 44 216 134 30 56 25 169 -9 245 -28 60 -81
125 -102 125 -6 0 -22 -12 -36 -27 l-24 -27 29 18 c28 17 29 17 55 -1 14 -11
41 -48 59 -83 28 -56 32 -74 32 -141 0 -70 -3 -81 -32 -125 -37 -54 -104 -100
-159 -108 -87 -13 -189 44 -230 129 -48 99 -10 275 82 380 54 62 62 62 105 2
52 -72 60 -79 36 -31 -23 45 -69 104 -82 104 -4 0 -19 -9 -33 -20z"/>
<path d="M263 528 c-41 -47 -63 -87 -78 -144 -16 -62 -20 -161 -7 -181 4 -7 6
16 4 51 -5 81 16 154 67 234 43 66 47 75 14 40z"/>
<path d="M337 480 c51 -104 59 -107 102 -49 l25 34 -26 -23 c-34 -31 -61 -25
-73 16 -5 18 -22 47 -37 65 -27 30 -26 28 9 -43z"/>
<path d="M503 408 c29 -47 32 -58 32 -134 0 -45 3 -77 7 -70 13 19 9 122 -7
165 -15 43 -45 90 -57 91 -4 0 7 -23 25 -52z"/>
<path d="M293 328 c-41 -43 -73 -96 -73 -120 0 -7 9 6 21 29 26 53 91 113 123
113 25 0 101 -79 123 -130 7 -14 12 -20 12 -13 2 26 -21 66 -65 113 -60 64
-85 66 -141 8z"/>
<path d="M386 288 c73 -78 84 -131 37 -180 -74 -78 -192 18 -142 115 6 12 25
37 42 55 17 17 25 32 18 32 -17 0 -48 -37 -67 -77 -37 -84 4 -163 86 -163 92
0 131 99 73 187 -14 23 -38 47 -52 53 -25 11 -25 11 5 -22z"/>
</g>
</svg>
